<svg width="258" height="80" fill="none" xmlns="http://www.w3.org/2000/svg"><g clip-path="url(#clip0)"><path d="M57.22 25.373L46.687 35.906l4.079 4.079L61.299 29.45l-4.079-4.078zM35.91 46.706L25.375 57.24l4.078 4.078 10.534-10.533-4.079-4.078zM50.517 18.706L39.984 29.239l4.078 4.078 10.534-10.533-4.079-4.078zM29.235 40.01L18.703 50.545l4.079 4.078 10.533-10.533-4.079-4.078zM22.758 25.373l-4.079 4.078 10.533 10.533 4.079-4.078-10.533-10.533zM29.454 18.699l-4.078 4.078L35.909 33.31l4.078-4.078L29.454 18.7zM50.76 39.98l-4.08 4.08 10.534 10.532 4.078-4.078L50.76 39.981zM44.092 46.684l-4.078 4.078 10.533 10.533 4.078-4.078-10.533-10.533z" fill="#66C05D"/><path d="M54.606 65.394l-4.067-4.066L40 71.868l-10.54-10.54-4.066 4.066L40 80l14.606-14.606zM18.672 29.46l-4.066-4.066L0 40l14.606 14.606 4.066-4.067L8.132 40l10.54-10.54zM65.394 25.394l-4.066 4.067L71.868 40l-10.54 10.54 4.066 4.066L80 40 65.394 25.394zM50.54 18.672l4.066-4.066L40 0 25.394 14.606l4.067 4.066L40 8.132l10.54 10.54z" fill="#EFEFEF"/></g><path d="M102.285 54V28.406h8.965c3.105 0 5.461.598 7.066 1.793 1.606 1.184 2.409 2.924 2.409 5.22 0 1.255-.323 2.362-.967 3.323-.645.95-1.541 1.647-2.69 2.092 1.313.328 2.344.99 3.094 1.986.762.996 1.143 2.215 1.143 3.657 0 2.46-.785 4.324-2.356 5.59-1.57 1.265-3.808 1.91-6.715 1.933h-9.949zm5.274-11.145v6.909h4.517c1.242 0 2.209-.293 2.901-.88.703-.597 1.054-1.417 1.054-2.46 0-2.344-1.213-3.533-3.638-3.569h-4.834zm0-3.726h3.902c2.66-.047 3.99-1.107 3.99-3.182 0-1.16-.34-1.992-1.019-2.496-.668-.516-1.729-.773-3.182-.773h-3.691v6.45zm36.717 3.78h-10.125v6.855h11.883V54h-17.157V28.406h17.121v4.272h-11.847v6.1h10.125v4.13zm22.901 5.818h-9.247L156.173 54h-5.608l9.528-25.594h4.886L174.559 54h-5.607l-1.775-5.273zm-7.823-4.272h6.399l-3.217-9.58-3.182 9.58zm40.251-16.049v16.858c0 2.8-.879 5.015-2.637 6.644-1.746 1.63-4.137 2.444-7.172 2.444-2.988 0-5.361-.791-7.119-2.373-1.758-1.582-2.654-3.756-2.689-6.522v-17.05h5.273v16.892c0 1.676.398 2.9 1.195 3.674.809.761 1.922 1.142 3.34 1.142 2.965 0 4.471-1.558 4.518-4.675V28.406h5.291zm27.19 4.272h-7.84V54h-5.274V32.678h-7.734v-4.272h20.848v4.272zm15.728 7.26l5.327-11.532h5.765l-8.402 16.313V54h-5.361v-9.281l-8.403-16.313h5.783l5.291 11.532z" fill="#66C05D"/><defs><clipPath id="clip0"><path fill="#fff" d="M0 0h80v80H0z"/></clipPath></defs></svg>